solid OpenSCAD_Model
  facet normal -1 0 0
    outer loop
      vertex 0 0 0
      vertex 0 1600 1200
      vertex 0 1600 0
    endloop
  endfacet
  facet normal -1 -0 0
    outer loop
      vertex 0 1600 1200
      vertex 0 0 0
      vertex 0 0 1200
    endloop
  endfacet
  facet normal -0 0 1
    outer loop
      vertex 0 1600 1200
      vertex 20 0 1200
      vertex 20 1600 1200
    endloop
  endfacet
  facet normal 0 0 1
    outer loop
      vertex 20 0 1200
      vertex 0 1600 1200
      vertex 0 0 1200
    endloop
  endfacet
  facet normal 1 0 0
    outer loop
      vertex 20 1600 1200
      vertex 20 1400 600
      vertex 20 1600 600
    endloop
  endfacet
  facet normal 1 0 0
    outer loop
      vertex 20 1398 451
      vertex 20 1400 600
      vertex 20 1398 525
    endloop
  endfacet
  facet normal 1 0 0
    outer loop
      vertex 20 1400 600
      vertex 20 1324 525
      vertex 20 1398 525
    endloop
  endfacet
  facet normal 1 0 0
    outer loop
      vertex 20 1600 1200
      vertex 20 1324 525
      vertex 20 1400 600
    endloop
  endfacet
  facet normal 1 0 0
    outer loop
      vertex 20 1324 525
      vertex 20 274 525
      vertex 20 1324 451
    endloop
  endfacet
  facet normal 1 -0 0
    outer loop
      vertex 20 200 600
      vertex 20 1324 525
      vertex 20 1600 1200
    endloop
  endfacet
  facet normal 1 0 0
    outer loop
      vertex 20 1324 525
      vertex 20 200 600
      vertex 20 274 525
    endloop
  endfacet
  facet normal 1 -0 0
    outer loop
      vertex 20 0 1200
      vertex 20 200 600
      vertex 20 1600 1200
    endloop
  endfacet
  facet normal 1 0 0
    outer loop
      vertex 20 200 600
      vertex 20 0 1200
      vertex 20 0 600
    endloop
  endfacet
  facet normal 1 0 0
    outer loop
      vertex 20 1400 600
      vertex 20 1398 451
      vertex 20 1400 0
    endloop
  endfacet
  facet normal 1 -0 0
    outer loop
      vertex 20 1324 451
      vertex 20 1400 0
      vertex 20 1398 451
    endloop
  endfacet
  facet normal 1 0 0
    outer loop
      vertex 20 274 451
      vertex 20 1324 451
      vertex 20 274 525
    endloop
  endfacet
  facet normal 1 0 0
    outer loop
      vertex 20 1324 451
      vertex 20 274 451
      vertex 20 1400 0
    endloop
  endfacet
  facet normal 1 0 0
    outer loop
      vertex 20 200 0
      vertex 20 274 451
      vertex 20 200 451
    endloop
  endfacet
  facet normal 1 0 0
    outer loop
      vertex 20 274 451
      vertex 20 200 0
      vertex 20 1400 0
    endloop
  endfacet
  facet normal 1 0 0
    outer loop
      vertex 20 274 525
      vertex 20 200 600
      vertex 20 200 525
    endloop
  endfacet
  facet normal 0 0 -1
    outer loop
      vertex 20 1400 0
      vertex 220 1560 0
      vertex 220 1400 0
    endloop
  endfacet
  facet normal 0 0 -1
    outer loop
      vertex 0 1600 0
      vertex 220 1560 0
      vertex 20 1400 0
    endloop
  endfacet
  facet normal 0 0 -1
    outer loop
      vertex 220 1560 0
      vertex 0 1600 0
      vertex 220 1585 0
    endloop
  endfacet
  facet normal 0 0 -1
    outer loop
      vertex 220 30 0
      vertex 230 40 0
      vertex 230 30 0
    endloop
  endfacet
  facet normal -0 0 -1
    outer loop
      vertex 230 40 0
      vertex 220 30 0
      vertex 220 40 0
    endloop
  endfacet
  facet normal 0 0 -1
    outer loop
      vertex 220 1590 0
      vertex 230 1600 0
      vertex 230 1590 0
    endloop
  endfacet
  facet normal 0 0 -1
    outer loop
      vertex 220 1585 0
      vertex 0 1600 0
      vertex 220 1590 0
    endloop
  endfacet
  facet normal 0 0 -1
    outer loop
      vertex 220 1590 0
      vertex 0 1600 0
      vertex 230 1600 0
    endloop
  endfacet
  facet normal 0 0 -1
    outer loop
      vertex 0 1600 0
      vertex 20 1400 0
      vertex 0 0 0
    endloop
  endfacet
  facet normal 0 0 -1
    outer loop
      vertex 230 1560 0
      vertex 220 1560 0
      vertex 230 1570 0
    endloop
  endfacet
  facet normal 0 0 -1
    outer loop
      vertex 230 0 0
      vertex 220 25 0
      vertex 230 10 0
    endloop
  endfacet
  facet normal 0 0 -1
    outer loop
      vertex 0 0 0
      vertex 220 30 0
      vertex 220 25 0
    endloop
  endfacet
  facet normal -0 0 -1
    outer loop
      vertex 220 30 0
      vertex 0 0 0
      vertex 220 40 0
    endloop
  endfacet
  facet normal 0 0 -1
    outer loop
      vertex 220 40 0
      vertex 20 200 0
      vertex 220 200 0
    endloop
  endfacet
  facet normal 0 0 -1
    outer loop
      vertex 0 0 0
      vertex 220 25 0
      vertex 230 0 0
    endloop
  endfacet
  facet normal -0 0 -1
    outer loop
      vertex 20 200 0
      vertex 0 0 0
      vertex 20 1400 0
    endloop
  endfacet
  facet normal -0 0 -1
    outer loop
      vertex 220 40 0
      vertex 0 0 0
      vertex 20 200 0
    endloop
  endfacet
  facet normal 0 0 -1
    outer loop
      vertex 1810 1570 0
      vertex 1820 1560 0
      vertex 1810 1560 0
    endloop
  endfacet
  facet normal 0 0 -1
    outer loop
      vertex 1820 1560 0
      vertex 1810 1570 0
      vertex 1820 1585 0
    endloop
  endfacet
  facet normal 0 0 -1
    outer loop
      vertex 230 1570 0
      vertex 1820 1585 0
      vertex 1810 1570 0
    endloop
  endfacet
  facet normal 0 0 -1
    outer loop
      vertex 230 1570 0
      vertex 220 1585 0
      vertex 1820 1585 0
    endloop
  endfacet
  facet normal 0 0 -1
    outer loop
      vertex 220 1585 0
      vertex 230 1570 0
      vertex 220 1560 0
    endloop
  endfacet
  facet normal 0 0 -1
    outer loop
      vertex 1810 30 0
      vertex 1820 40 0
      vertex 1820 30 0
    endloop
  endfacet
  facet normal -0 0 -1
    outer loop
      vertex 1820 40 0
      vertex 1810 30 0
      vertex 1810 40 0
    endloop
  endfacet
  facet normal 0 0 -1
    outer loop
      vertex 2040 0 0
      vertex 2020 200 0
      vertex 2040 1600 0
    endloop
  endfacet
  facet normal 0 0 -1
    outer loop
      vertex 1820 30 0
      vertex 2040 0 0
      vertex 1820 25 0
    endloop
  endfacet
  facet normal 0 0 -1
    outer loop
      vertex 1810 0 0
      vertex 1820 25 0
      vertex 2040 0 0
    endloop
  endfacet
  facet normal 0 0 -1
    outer loop
      vertex 1810 10 0
      vertex 1820 25 0
      vertex 1810 0 0
    endloop
  endfacet
  facet normal 0 0 -1
    outer loop
      vertex 230 10 0
      vertex 1820 25 0
      vertex 1810 10 0
    endloop
  endfacet
  facet normal -0 0 -1
    outer loop
      vertex 1820 25 0
      vertex 230 10 0
      vertex 220 25 0
    endloop
  endfacet
  facet normal 0 0 -1
    outer loop
      vertex 2020 1400 0
      vertex 2040 1600 0
      vertex 2020 200 0
    endloop
  endfacet
  facet normal 0 0 -1
    outer loop
      vertex 1820 1560 0
      vertex 2020 1400 0
      vertex 1820 1400 0
    endloop
  endfacet
  facet normal 0 0 -1
    outer loop
      vertex 2020 1400 0
      vertex 1820 1560 0
      vertex 2040 1600 0
    endloop
  endfacet
  facet normal 0 0 -1
    outer loop
      vertex 1820 1585 0
      vertex 2040 1600 0
      vertex 1820 1560 0
    endloop
  endfacet
  facet normal 0 0 -1
    outer loop
      vertex 1820 1590 0
      vertex 2040 1600 0
      vertex 1820 1585 0
    endloop
  endfacet
  facet normal 0 0 -1
    outer loop
      vertex 1810 1600 0
      vertex 1820 1590 0
      vertex 1810 1590 0
    endloop
  endfacet
  facet normal 0 0 -1
    outer loop
      vertex 1820 1590 0
      vertex 1810 1600 0
      vertex 2040 1600 0
    endloop
  endfacet
  facet normal 0 0 -1
    outer loop
      vertex 1820 40 0
      vertex 2040 0 0
      vertex 1820 30 0
    endloop
  endfacet
  facet normal 0 0 -1
    outer loop
      vertex 2040 0 0
      vertex 1820 40 0
      vertex 2020 200 0
    endloop
  endfacet
  facet normal -0 0 -1
    outer loop
      vertex 2020 200 0
      vertex 1820 40 0
      vertex 1820 200 0
    endloop
  endfacet
  facet normal 0 -1 0
    outer loop
      vertex 0 0 1200
      vertex 20 0 600
      vertex 20 0 1200
    endloop
  endfacet
  facet normal 0 -1 0
    outer loop
      vertex 0 0 0
      vertex 20 0 600
      vertex 0 0 1200
    endloop
  endfacet
  facet normal 0 -1 0
    outer loop
      vertex 230 0 0
      vertex 20 0 600
      vertex 0 0 0
    endloop
  endfacet
  facet normal 0 -1 0
    outer loop
      vertex 20 0 600
      vertex 230 0 0
      vertex 230 0 600
    endloop
  endfacet
  facet normal 0 1 0
    outer loop
      vertex 230 1600 600
      vertex 230 1600 0
      vertex 20 1600 600
    endloop
  endfacet
  facet normal 0 1 -0
    outer loop
      vertex 20 1600 600
      vertex 0 1600 1200
      vertex 20 1600 1200
    endloop
  endfacet
  facet normal 0 1 0
    outer loop
      vertex 20 1600 600
      vertex 0 1600 0
      vertex 0 1600 1200
    endloop
  endfacet
  facet normal 0 1 0
    outer loop
      vertex 0 1600 0
      vertex 20 1600 600
      vertex 230 1600 0
    endloop
  endfacet
  facet normal -0 0 1
    outer loop
      vertex 20 200 600
      vertex 220 25 600
      vertex 220 200 600
    endloop
  endfacet
  facet normal 0 0 1
    outer loop
      vertex 20 0 600
      vertex 220 25 600
      vertex 20 200 600
    endloop
  endfacet
  facet normal -0 0 1
    outer loop
      vertex 220 10 600
      vertex 230 0 600
      vertex 230 10 600
    endloop
  endfacet
  facet normal 0 0 1
    outer loop
      vertex 220 25 600
      vertex 20 0 600
      vertex 220 10 600
    endloop
  endfacet
  facet normal 0 0 1
    outer loop
      vertex 220 10 600
      vertex 20 0 600
      vertex 230 0 600
    endloop
  endfacet
  facet normal -1 0 0
    outer loop
      vertex 220 1570 600
      vertex 220 1585 700
      vertex 220 1585 600
    endloop
  endfacet
  facet normal -1 -0 0
    outer loop
      vertex 220 1585 700
      vertex 220 1570 600
      vertex 220 1570 700
    endloop
  endfacet
  facet normal 1 -0 0
    outer loop
      vertex 220 1585 600
      vertex 220 1590 0
      vertex 220 1590 600
    endloop
  endfacet
  facet normal 1 0 0
    outer loop
      vertex 220 1590 0
      vertex 220 1585 600
      vertex 220 1585 0
    endloop
  endfacet
  facet normal -1 0 0
    outer loop
      vertex 220 10 600
      vertex 220 25 700
      vertex 220 25 600
    endloop
  endfacet
  facet normal -1 -0 0
    outer loop
      vertex 220 25 700
      vertex 220 10 600
      vertex 220 10 700
    endloop
  endfacet
  facet normal 1 -0 0
    outer loop
      vertex 220 25 524
      vertex 220 200 451
      vertex 220 200 524
    endloop
  endfacet
  facet normal 1 0 0
    outer loop
      vertex 220 200 451
      vertex 220 40 400
      vertex 220 200 0
    endloop
  endfacet
  facet normal 1 0 0
    outer loop
      vertex 220 200 451
      vertex 220 25 524
      vertex 220 40 400
    endloop
  endfacet
  facet normal 1 0 0
    outer loop
      vertex 220 40 400
      vertex 220 25 524
      vertex 220 30 400
    endloop
  endfacet
  facet normal 1 0 0
    outer loop
      vertex 220 25 0
      vertex 220 30 400
      vertex 220 25 524
    endloop
  endfacet
  facet normal 1 0 0
    outer loop
      vertex 220 30 400
      vertex 220 25 0
      vertex 220 30 0
    endloop
  endfacet
  facet normal 1 0 0
    outer loop
      vertex 220 200 0
      vertex 220 40 400
      vertex 220 40 0
    endloop
  endfacet
  facet normal 1 0 0
    outer loop
      vertex 220 1570 524
      vertex 220 1560 400
      vertex 220 1570 400
    endloop
  endfacet
  facet normal 1 -0 0
    outer loop
      vertex 220 1400 524
      vertex 220 1560 400
      vertex 220 1570 524
    endloop
  endfacet
  facet normal 1 0 0
    outer loop
      vertex 220 1400 0
      vertex 220 1560 400
      vertex 220 1400 524
    endloop
  endfacet
  facet normal 1 0 0
    outer loop
      vertex 220 1560 400
      vertex 220 1400 0
      vertex 220 1560 0
    endloop
  endfacet
  facet normal 1 -0 0
    outer loop
      vertex 220 25 600
      vertex 220 200 598
      vertex 220 200 600
    endloop
  endfacet
  facet normal 1 0 0
    outer loop
      vertex 220 200 598
      vertex 220 25 600
      vertex 220 25 598
    endloop
  endfacet
  facet normal -1 0 0
    outer loop
      vertex 220 1324 524
      vertex 220 274 524
      vertex 220 1324 525
    endloop
  endfacet
  facet normal -1 0 0
    outer loop
      vertex 220 1398 525
      vertex 220 1400 524
      vertex 220 1398 524
    endloop
  endfacet
  facet normal -1 0 0
    outer loop
      vertex 220 1400 524
      vertex 220 1398 525
      vertex 220 1400 598
    endloop
  endfacet
  facet normal -1 0 0
    outer loop
      vertex 220 1324 525
      vertex 220 1400 598
      vertex 220 1398 525
    endloop
  endfacet
  facet normal -1 0 0
    outer loop
      vertex 220 274 525
      vertex 220 1324 525
      vertex 220 274 524
    endloop
  endfacet
  facet normal -1 0 0
    outer loop
      vertex 220 200 598
      vertex 220 1324 525
      vertex 220 274 525
    endloop
  endfacet
  facet normal -1 0 0
    outer loop
      vertex 220 200 598
      vertex 220 274 525
      vertex 220 200 525
    endloop
  endfacet
  facet normal -1 0 0
    outer loop
      vertex 220 1324 525
      vertex 220 200 598
      vertex 220 1400 598
    endloop
  endfacet
  facet normal 1 -0 0
    outer loop
      vertex 220 1400 600
      vertex 220 1570 598
      vertex 220 1570 600
    endloop
  endfacet
  facet normal 1 0 0
    outer loop
      vertex 220 1570 598
      vertex 220 1400 600
      vertex 220 1400 598
    endloop
  endfacet
  facet normal 0 1 -0
    outer loop
      vertex 2020 200 525
      vertex 1820 200 600
      vertex 2020 200 600
    endloop
  endfacet
  facet normal 0 1 0
    outer loop
      vertex 1820 200 600
      vertex 2020 200 525
      vertex 1820 200 525
    endloop
  endfacet
  facet normal 0 1 -0
    outer loop
      vertex 220 200 0
      vertex 20 200 451
      vertex 220 200 451
    endloop
  endfacet
  facet normal 0 1 0
    outer loop
      vertex 20 200 451
      vertex 220 200 0
      vertex 20 200 0
    endloop
  endfacet
  facet normal 0 1 -0
    outer loop
      vertex 220 200 598
      vertex 20 200 600
      vertex 220 200 600
    endloop
  endfacet
  facet normal 0 1 -0
    outer loop
      vertex 220 200 525
      vertex 20 200 600
      vertex 220 200 598
    endloop
  endfacet
  facet normal 0 1 0
    outer loop
      vertex 20 200 600
      vertex 220 200 525
      vertex 20 200 525
    endloop
  endfacet
  facet normal 0 1 -0
    outer loop
      vertex 2020 200 0
      vertex 1820 200 451
      vertex 2020 200 451
    endloop
  endfacet
  facet normal 0 1 0
    outer loop
      vertex 1820 200 451
      vertex 2020 200 0
      vertex 1820 200 0
    endloop
  endfacet
  facet normal 0 -1 0
    outer loop
      vertex 220 200 451
      vertex 294 200 524
      vertex 220 200 524
    endloop
  endfacet
  facet normal 0 -1 -0
    outer loop
      vertex 294 200 524
      vertex 220 200 451
      vertex 601 200 524
    endloop
  endfacet
  facet normal 0 -1 -0
    outer loop
      vertex 601 200 524
      vertex 220 200 451
      vertex 675 200 524
    endloop
  endfacet
  facet normal 0 -1 -0
    outer loop
      vertex 675 200 524
      vertex 220 200 451
      vertex 982 200 524
    endloop
  endfacet
  facet normal 0 -1 -0
    outer loop
      vertex 982 200 524
      vertex 220 200 451
      vertex 1056 200 524
    endloop
  endfacet
  facet normal 0 -1 0
    outer loop
      vertex 1820 200 451
      vertex 1056 200 524
      vertex 220 200 451
    endloop
  endfacet
  facet normal 0 -1 0
    outer loop
      vertex 1056 200 524
      vertex 1820 200 451
      vertex 1363 200 524
    endloop
  endfacet
  facet normal 0 -1 0
    outer loop
      vertex 1363 200 524
      vertex 1820 200 451
      vertex 1437 200 524
    endloop
  endfacet
  facet normal 0 -1 0
    outer loop
      vertex 1437 200 524
      vertex 1820 200 451
      vertex 1744 200 524
    endloop
  endfacet
  facet normal 0 -1 0
    outer loop
      vertex 294 200 524
      vertex 601 200 525
      vertex 294 200 525
    endloop
  endfacet
  facet normal 0 -1 -0
    outer loop
      vertex 601 200 525
      vertex 294 200 524
      vertex 601 200 524
    endloop
  endfacet
  facet normal 0 -1 0
    outer loop
      vertex 675 200 524
      vertex 982 200 525
      vertex 675 200 525
    endloop
  endfacet
  facet normal 0 -1 -0
    outer loop
      vertex 982 200 525
      vertex 675 200 524
      vertex 982 200 524
    endloop
  endfacet
  facet normal 0 -1 0
    outer loop
      vertex 1056 200 524
      vertex 1363 200 525
      vertex 1056 200 525
    endloop
  endfacet
  facet normal 0 -1 -0
    outer loop
      vertex 1363 200 525
      vertex 1056 200 524
      vertex 1363 200 524
    endloop
  endfacet
  facet normal 0 -1 0
    outer loop
      vertex 1437 200 524
      vertex 1744 200 525
      vertex 1437 200 525
    endloop
  endfacet
  facet normal 0 -1 -0
    outer loop
      vertex 1744 200 525
      vertex 1437 200 524
      vertex 1744 200 524
    endloop
  endfacet
  facet normal 0 -1 0
    outer loop
      vertex 1818 200 524
      vertex 1820 200 525
      vertex 1818 200 525
    endloop
  endfacet
  facet normal 0 -1 0
    outer loop
      vertex 1818 200 524
      vertex 1820 200 451
      vertex 1820 200 525
    endloop
  endfacet
  facet normal 0 -1 0
    outer loop
      vertex 1744 200 524
      vertex 1820 200 451
      vertex 1818 200 524
    endloop
  endfacet
  facet normal 1 -0 0
    outer loop
      vertex 1820 10 700
      vertex 1820 25 600
      vertex 1820 25 700
    endloop
  endfacet
  facet normal 1 0 0
    outer loop
      vertex 1820 25 600
      vertex 1820 10 700
      vertex 1820 10 600
    endloop
  endfacet
  facet normal -1 0 0
    outer loop
      vertex 1820 30 0
      vertex 1820 25 0
      vertex 1820 30 400
    endloop
  endfacet
  facet normal -1 0 0
    outer loop
      vertex 1820 40 400
      vertex 1820 200 451
      vertex 1820 200 0
    endloop
  endfacet
  facet normal -1 -0 0
    outer loop
      vertex 1820 200 451
      vertex 1820 40 400
      vertex 1820 200 525
    endloop
  endfacet
  facet normal -1 0 0
    outer loop
      vertex 1820 40 400
      vertex 1820 200 0
      vertex 1820 40 0
    endloop
  endfacet
  facet normal -1 0 0
    outer loop
      vertex 1820 25 600
      vertex 1820 200 525
      vertex 1820 40 400
    endloop
  endfacet
  facet normal -1 0 0
    outer loop
      vertex 1820 25 600
      vertex 1820 40 400
      vertex 1820 30 400
    endloop
  endfacet
  facet normal -1 0 0
    outer loop
      vertex 1820 200 525
      vertex 1820 25 600
      vertex 1820 200 600
    endloop
  endfacet
  facet normal -1 0 0
    outer loop
      vertex 1820 25 600
      vertex 1820 30 400
      vertex 1820 25 0
    endloop
  endfacet
  facet normal 0 0 1
    outer loop
      vertex 1820 25 600
      vertex 2020 200 600
      vertex 1820 200 600
    endloop
  endfacet
  facet normal 0 0 1
    outer loop
      vertex 2020 200 600
      vertex 1820 25 600
      vertex 2020 0 600
    endloop
  endfacet
  facet normal -0 0 1
    outer loop
      vertex 1820 10 600
      vertex 2020 0 600
      vertex 1820 25 600
    endloop
  endfacet
  facet normal 0 0 1
    outer loop
      vertex 1810 0 600
      vertex 1820 10 600
      vertex 1810 10 600
    endloop
  endfacet
  facet normal 0 0 1
    outer loop
      vertex 1820 10 600
      vertex 1810 0 600
      vertex 2020 0 600
    endloop
  endfacet
  facet normal -1 0 0
    outer loop
      vertex 2020 1400 0
      vertex 2020 1398 451
      vertex 2020 1400 600
    endloop
  endfacet
  facet normal -1 0 0
    outer loop
      vertex 2020 1400 0
      vertex 2020 1324 451
      vertex 2020 1398 451
    endloop
  endfacet
  facet normal -1 0 0
    outer loop
      vertex 2020 1324 451
      vertex 2020 274 451
      vertex 2020 1324 525
    endloop
  endfacet
  facet normal -1 0 0
    outer loop
      vertex 2020 1400 0
      vertex 2020 274 451
      vertex 2020 1324 451
    endloop
  endfacet
  facet normal -1 0 0
    outer loop
      vertex 2020 200 0
      vertex 2020 274 451
      vertex 2020 1400 0
    endloop
  endfacet
  facet normal -1 -0 0
    outer loop
      vertex 2020 274 451
      vertex 2020 200 0
      vertex 2020 200 451
    endloop
  endfacet
  facet normal -1 0 0
    outer loop
      vertex 2020 1400 600
      vertex 2020 1600 700
      vertex 2020 1600 600
    endloop
  endfacet
  facet normal -1 0 0
    outer loop
      vertex 2020 1398 525
      vertex 2020 1400 600
      vertex 2020 1398 451
    endloop
  endfacet
  facet normal -1 0 0
    outer loop
      vertex 2020 1324 525
      vertex 2020 1400 600
      vertex 2020 1398 525
    endloop
  endfacet
  facet normal -1 0 0
    outer loop
      vertex 2020 274 525
      vertex 2020 1324 525
      vertex 2020 274 451
    endloop
  endfacet
  facet normal -1 0 0
    outer loop
      vertex 2020 200 600
      vertex 2020 1324 525
      vertex 2020 274 525
    endloop
  endfacet
  facet normal -1 0 0
    outer loop
      vertex 2020 1324 525
      vertex 2020 200 600
      vertex 2020 1400 600
    endloop
  endfacet
  facet normal -1 0 0
    outer loop
      vertex 2020 200 600
      vertex 2020 274 525
      vertex 2020 200 525
    endloop
  endfacet
  facet normal -1 0 0
    outer loop
      vertex 2020 1400 600
      vertex 2020 200 600
      vertex 2020 1600 700
    endloop
  endfacet
  facet normal -1 0 0
    outer loop
      vertex 2020 0 700
      vertex 2020 200 600
      vertex 2020 0 600
    endloop
  endfacet
  facet normal -1 0 0
    outer loop
      vertex 2020 200 600
      vertex 2020 0 700
      vertex 2020 1600 700
    endloop
  endfacet
  facet normal 0 -1 0
    outer loop
      vertex 1810 0 600
      vertex 1810 0 0
      vertex 2020 0 600
    endloop
  endfacet
  facet normal 0 -1 0
    outer loop
      vertex 2020 0 600
      vertex 2040 0 700
      vertex 2020 0 700
    endloop
  endfacet
  facet normal 0 -1 0
    outer loop
      vertex 2020 0 600
      vertex 2040 0 0
      vertex 2040 0 700
    endloop
  endfacet
  facet normal 0 -1 0
    outer loop
      vertex 2040 0 0
      vertex 2020 0 600
      vertex 1810 0 0
    endloop
  endfacet
  facet normal 0 0 1
    outer loop
      vertex 230 1600 600
      vertex 220 1590 600
      vertex 230 1590 600
    endloop
  endfacet
  facet normal 0 0 1
    outer loop
      vertex 20 1600 600
      vertex 220 1585 600
      vertex 220 1590 600
    endloop
  endfacet
  facet normal 0 0 1
    outer loop
      vertex 220 1585 600
      vertex 20 1600 600
      vertex 220 1570 600
    endloop
  endfacet
  facet normal -0 0 1
    outer loop
      vertex 20 1600 600
      vertex 220 1590 600
      vertex 230 1600 600
    endloop
  endfacet
  facet normal 0 0 1
    outer loop
      vertex 220 1570 600
      vertex 20 1600 600
      vertex 20 1400 600
    endloop
  endfacet
  facet normal 0 0 1
    outer loop
      vertex 220 1570 600
      vertex 20 1400 600
      vertex 220 1400 600
    endloop
  endfacet
  facet normal 0 -1 0
    outer loop
      vertex 20 1400 600
      vertex 220 1400 598
      vertex 220 1400 600
    endloop
  endfacet
  facet normal 0 -1 0
    outer loop
      vertex 20 1400 600
      vertex 220 1400 524
      vertex 220 1400 598
    endloop
  endfacet
  facet normal 0 -1 0
    outer loop
      vertex 20 1400 0
      vertex 220 1400 524
      vertex 20 1400 600
    endloop
  endfacet
  facet normal 0 -1 -0
    outer loop
      vertex 220 1400 524
      vertex 20 1400 0
      vertex 220 1400 0
    endloop
  endfacet
  facet normal 1 -0 0
    outer loop
      vertex 1820 1570 700
      vertex 1820 1585 600
      vertex 1820 1585 700
    endloop
  endfacet
  facet normal 1 0 0
    outer loop
      vertex 1820 1585 600
      vertex 1820 1570 700
      vertex 1820 1570 600
    endloop
  endfacet
  facet normal -1 0 0
    outer loop
      vertex 1820 1585 0
      vertex 1820 1590 600
      vertex 1820 1590 0
    endloop
  endfacet
  facet normal -1 -0 0
    outer loop
      vertex 1820 1590 600
      vertex 1820 1585 0
      vertex 1820 1585 600
    endloop
  endfacet
  facet normal -1 0 0
    outer loop
      vertex 1820 1560 0
      vertex 1820 1400 0
      vertex 1820 1560 400
    endloop
  endfacet
  facet normal -1 0 0
    outer loop
      vertex 1820 1560 400
      vertex 1820 1570 600
      vertex 1820 1570 400
    endloop
  endfacet
  facet normal -1 0 0
    outer loop
      vertex 1820 1400 600
      vertex 1820 1560 400
      vertex 1820 1400 0
    endloop
  endfacet
  facet normal -1 0 0
    outer loop
      vertex 1820 1560 400
      vertex 1820 1400 600
      vertex 1820 1570 600
    endloop
  endfacet
  facet normal 0 0 1
    outer loop
      vertex 1820 1585 600
      vertex 2020 1600 600
      vertex 1820 1590 600
    endloop
  endfacet
  facet normal -0 0 1
    outer loop
      vertex 1810 1600 600
      vertex 1820 1590 600
      vertex 2020 1600 600
    endloop
  endfacet
  facet normal 0 0 1
    outer loop
      vertex 1820 1590 600
      vertex 1810 1600 600
      vertex 1810 1590 600
    endloop
  endfacet
  facet normal 0 0 1
    outer loop
      vertex 1820 1570 600
      vertex 2020 1600 600
      vertex 1820 1585 600
    endloop
  endfacet
  facet normal 0 0 1
    outer loop
      vertex 2020 1600 600
      vertex 1820 1570 600
      vertex 2020 1400 600
    endloop
  endfacet
  facet normal 0 0 1
    outer loop
      vertex 2020 1400 600
      vertex 1820 1570 600
      vertex 1820 1400 600
    endloop
  endfacet
  facet normal 0 -1 0
    outer loop
      vertex 1820 1400 0
      vertex 2020 1400 600
      vertex 1820 1400 600
    endloop
  endfacet
  facet normal 0 -1 -0
    outer loop
      vertex 2020 1400 600
      vertex 1820 1400 0
      vertex 2020 1400 0
    endloop
  endfacet
  facet normal 0 1 0
    outer loop
      vertex 2040 1600 700
      vertex 2020 1600 600
      vertex 2020 1600 700
    endloop
  endfacet
  facet normal 0 1 -0
    outer loop
      vertex 2040 1600 0
      vertex 2020 1600 600
      vertex 2040 1600 700
    endloop
  endfacet
  facet normal 0 1 0
    outer loop
      vertex 1810 1600 0
      vertex 2020 1600 600
      vertex 2040 1600 0
    endloop
  endfacet
  facet normal 0 1 0
    outer loop
      vertex 2020 1600 600
      vertex 1810 1600 0
      vertex 1810 1600 600
    endloop
  endfacet
  facet normal 0 0 1
    outer loop
      vertex 2020 274 525
      vertex 1820 200 525
      vertex 2020 200 525
    endloop
  endfacet
  facet normal -0 0 1
    outer loop
      vertex 1818 274 525
      vertex 1820 200 525
      vertex 2020 274 525
    endloop
  endfacet
  facet normal 0 0 1
    outer loop
      vertex 1820 200 525
      vertex 1818 274 525
      vertex 1818 200 525
    endloop
  endfacet
  facet normal -0 0 1
    outer loop
      vertex 20 274 525
      vertex 220 200 525
      vertex 220 274 525
    endloop
  endfacet
  facet normal 0 0 1
    outer loop
      vertex 220 200 525
      vertex 20 274 525
      vertex 20 200 525
    endloop
  endfacet
  facet normal -0 0 1
    outer loop
      vertex 294 274 525
      vertex 601 200 525
      vertex 601 274 525
    endloop
  endfacet
  facet normal 0 0 1
    outer loop
      vertex 601 200 525
      vertex 294 274 525
      vertex 294 200 525
    endloop
  endfacet
  facet normal -0 0 1
    outer loop
      vertex 675 274 525
      vertex 982 200 525
      vertex 982 274 525
    endloop
  endfacet
  facet normal 0 0 1
    outer loop
      vertex 982 200 525
      vertex 675 274 525
      vertex 675 200 525
    endloop
  endfacet
  facet normal -0 0 1
    outer loop
      vertex 1056 274 525
      vertex 1363 200 525
      vertex 1363 274 525
    endloop
  endfacet
  facet normal 0 0 1
    outer loop
      vertex 1363 200 525
      vertex 1056 274 525
      vertex 1056 200 525
    endloop
  endfacet
  facet normal -0 0 1
    outer loop
      vertex 1437 274 525
      vertex 1744 200 525
      vertex 1744 274 525
    endloop
  endfacet
  facet normal 0 0 1
    outer loop
      vertex 1744 200 525
      vertex 1437 274 525
      vertex 1437 200 525
    endloop
  endfacet
  facet normal 0 1 0
    outer loop
      vertex 2020 274 525
      vertex 1818 274 524
      vertex 1818 274 525
    endloop
  endfacet
  facet normal 0 1 0
    outer loop
      vertex 2020 274 451
      vertex 1744 274 524
      vertex 1818 274 524
    endloop
  endfacet
  facet normal 0 1 0
    outer loop
      vertex 1744 274 524
      vertex 2020 274 451
      vertex 1437 274 524
    endloop
  endfacet
  facet normal 0 1 0
    outer loop
      vertex 1437 274 524
      vertex 2020 274 451
      vertex 1363 274 524
    endloop
  endfacet
  facet normal 0 1 0
    outer loop
      vertex 1363 274 524
      vertex 2020 274 451
      vertex 1056 274 524
    endloop
  endfacet
  facet normal 0 1 0
    outer loop
      vertex 1056 274 524
      vertex 2020 274 451
      vertex 982 274 524
    endloop
  endfacet
  facet normal 0 1 0
    outer loop
      vertex 20 274 451
      vertex 982 274 524
      vertex 2020 274 451
    endloop
  endfacet
  facet normal 0 1 0
    outer loop
      vertex 982 274 524
      vertex 20 274 451
      vertex 675 274 524
    endloop
  endfacet
  facet normal 0 1 0
    outer loop
      vertex 675 274 524
      vertex 20 274 451
      vertex 601 274 524
    endloop
  endfacet
  facet normal 0 1 0
    outer loop
      vertex 601 274 524
      vertex 20 274 451
      vertex 294 274 524
    endloop
  endfacet
  facet normal 0 1 -0
    outer loop
      vertex 2020 274 451
      vertex 1818 274 524
      vertex 2020 274 525
    endloop
  endfacet
  facet normal 0 1 -0
    outer loop
      vertex 1744 274 524
      vertex 1437 274 525
      vertex 1744 274 525
    endloop
  endfacet
  facet normal 0 1 0
    outer loop
      vertex 1437 274 525
      vertex 1744 274 524
      vertex 1437 274 524
    endloop
  endfacet
  facet normal 0 1 -0
    outer loop
      vertex 1363 274 524
      vertex 1056 274 525
      vertex 1363 274 525
    endloop
  endfacet
  facet normal 0 1 0
    outer loop
      vertex 1056 274 525
      vertex 1363 274 524
      vertex 1056 274 524
    endloop
  endfacet
  facet normal 0 1 -0
    outer loop
      vertex 982 274 524
      vertex 675 274 525
      vertex 982 274 525
    endloop
  endfacet
  facet normal 0 1 0
    outer loop
      vertex 675 274 525
      vertex 982 274 524
      vertex 675 274 524
    endloop
  endfacet
  facet normal 0 1 -0
    outer loop
      vertex 601 274 524
      vertex 294 274 525
      vertex 601 274 525
    endloop
  endfacet
  facet normal 0 1 0
    outer loop
      vertex 294 274 525
      vertex 601 274 524
      vertex 294 274 524
    endloop
  endfacet
  facet normal 0 1 -0
    outer loop
      vertex 220 274 524
      vertex 20 274 525
      vertex 220 274 525
    endloop
  endfacet
  facet normal 0 1 0
    outer loop
      vertex 294 274 524
      vertex 20 274 451
      vertex 220 274 524
    endloop
  endfacet
  facet normal 0 1 0
    outer loop
      vertex 220 274 524
      vertex 20 274 451
      vertex 20 274 525
    endloop
  endfacet
  facet normal 0 0 -1
    outer loop
      vertex 1820 200 451
      vertex 2020 274 451
      vertex 2020 200 451
    endloop
  endfacet
  facet normal 0 0 -1
    outer loop
      vertex 220 200 451
      vertex 2020 274 451
      vertex 1820 200 451
    endloop
  endfacet
  facet normal 0 0 -1
    outer loop
      vertex 20 274 451
      vertex 220 200 451
      vertex 20 200 451
    endloop
  endfacet
  facet normal 0 0 -1
    outer loop
      vertex 220 200 451
      vertex 20 274 451
      vertex 2020 274 451
    endloop
  endfacet
  facet normal -0 0 1
    outer loop
      vertex 1818 1398 525
      vertex 2020 1324 525
      vertex 2020 1398 525
    endloop
  endfacet
  facet normal 0 0 1
    outer loop
      vertex 2020 1324 525
      vertex 1818 1398 525
      vertex 1818 1324 525
    endloop
  endfacet
  facet normal -0 0 1
    outer loop
      vertex 20 1398 525
      vertex 220 1324 525
      vertex 220 1398 525
    endloop
  endfacet
  facet normal 0 0 1
    outer loop
      vertex 220 1324 525
      vertex 20 1398 525
      vertex 20 1324 525
    endloop
  endfacet
  facet normal -0 0 1
    outer loop
      vertex 294 1398 525
      vertex 601 1324 525
      vertex 601 1398 525
    endloop
  endfacet
  facet normal 0 0 1
    outer loop
      vertex 601 1324 525
      vertex 294 1398 525
      vertex 294 1324 525
    endloop
  endfacet
  facet normal -0 0 1
    outer loop
      vertex 675 1398 525
      vertex 982 1324 525
      vertex 982 1398 525
    endloop
  endfacet
  facet normal 0 0 1
    outer loop
      vertex 982 1324 525
      vertex 675 1398 525
      vertex 675 1324 525
    endloop
  endfacet
  facet normal -0 0 1
    outer loop
      vertex 1056 1398 525
      vertex 1363 1324 525
      vertex 1363 1398 525
    endloop
  endfacet
  facet normal 0 0 1
    outer loop
      vertex 1363 1324 525
      vertex 1056 1398 525
      vertex 1056 1324 525
    endloop
  endfacet
  facet normal -0 0 1
    outer loop
      vertex 1437 1398 525
      vertex 1744 1324 525
      vertex 1744 1398 525
    endloop
  endfacet
  facet normal 0 0 1
    outer loop
      vertex 1744 1324 525
      vertex 1437 1398 525
      vertex 1437 1324 525
    endloop
  endfacet
  facet normal 0 1 0
    outer loop
      vertex 2020 1398 525
      vertex 1818 1398 524
      vertex 1818 1398 525
    endloop
  endfacet
  facet normal 0 1 0
    outer loop
      vertex 2020 1398 451
      vertex 1744 1398 524
      vertex 1818 1398 524
    endloop
  endfacet
  facet normal 0 1 0
    outer loop
      vertex 1744 1398 524
      vertex 2020 1398 451
      vertex 1437 1398 524
    endloop
  endfacet
  facet normal 0 1 0
    outer loop
      vertex 1437 1398 524
      vertex 2020 1398 451
      vertex 1363 1398 524
    endloop
  endfacet
  facet normal 0 1 0
    outer loop
      vertex 1363 1398 524
      vertex 2020 1398 451
      vertex 1056 1398 524
    endloop
  endfacet
  facet normal 0 1 0
    outer loop
      vertex 1056 1398 524
      vertex 2020 1398 451
      vertex 982 1398 524
    endloop
  endfacet
  facet normal 0 1 0
    outer loop
      vertex 20 1398 451
      vertex 982 1398 524
      vertex 2020 1398 451
    endloop
  endfacet
  facet normal 0 1 0
    outer loop
      vertex 982 1398 524
      vertex 20 1398 451
      vertex 675 1398 524
    endloop
  endfacet
  facet normal 0 1 0
    outer loop
      vertex 675 1398 524
      vertex 20 1398 451
      vertex 601 1398 524
    endloop
  endfacet
  facet normal 0 1 0
    outer loop
      vertex 601 1398 524
      vertex 20 1398 451
      vertex 294 1398 524
    endloop
  endfacet
  facet normal 0 1 -0
    outer loop
      vertex 2020 1398 451
      vertex 1818 1398 524
      vertex 2020 1398 525
    endloop
  endfacet
  facet normal 0 1 -0
    outer loop
      vertex 1744 1398 524
      vertex 1437 1398 525
      vertex 1744 1398 525
    endloop
  endfacet
  facet normal 0 1 0
    outer loop
      vertex 1437 1398 525
      vertex 1744 1398 524
      vertex 1437 1398 524
    endloop
  endfacet
  facet normal 0 1 -0
    outer loop
      vertex 1363 1398 524
      vertex 1056 1398 525
      vertex 1363 1398 525
    endloop
  endfacet
  facet normal 0 1 0
    outer loop
      vertex 1056 1398 525
      vertex 1363 1398 524
      vertex 1056 1398 524
    endloop
  endfacet
  facet normal 0 1 -0
    outer loop
      vertex 982 1398 524
      vertex 675 1398 525
      vertex 982 1398 525
    endloop
  endfacet
  facet normal 0 1 0
    outer loop
      vertex 675 1398 525
      vertex 982 1398 524
      vertex 675 1398 524
    endloop
  endfacet
  facet normal 0 1 -0
    outer loop
      vertex 601 1398 524
      vertex 294 1398 525
      vertex 601 1398 525
    endloop
  endfacet
  facet normal 0 1 0
    outer loop
      vertex 294 1398 525
      vertex 601 1398 524
      vertex 294 1398 524
    endloop
  endfacet
  facet normal 0 1 -0
    outer loop
      vertex 220 1398 524
      vertex 20 1398 525
      vertex 220 1398 525
    endloop
  endfacet
  facet normal 0 1 0
    outer loop
      vertex 294 1398 524
      vertex 20 1398 451
      vertex 220 1398 524
    endloop
  endfacet
  facet normal 0 1 0
    outer loop
      vertex 220 1398 524
      vertex 20 1398 451
      vertex 20 1398 525
    endloop
  endfacet
  facet normal 0 0 -1
    outer loop
      vertex 20 1324 451
      vertex 2020 1398 451
      vertex 2020 1324 451
    endloop
  endfacet
  facet normal -0 0 -1
    outer loop
      vertex 2020 1398 451
      vertex 20 1324 451
      vertex 20 1398 451
    endloop
  endfacet
  facet normal 0 -1 0
    outer loop
      vertex 20 1324 525
      vertex 220 1324 524
      vertex 220 1324 525
    endloop
  endfacet
  facet normal 0 -1 0
    outer loop
      vertex 20 1324 451
      vertex 294 1324 524
      vertex 220 1324 524
    endloop
  endfacet
  facet normal 0 -1 -0
    outer loop
      vertex 294 1324 524
      vertex 20 1324 451
      vertex 601 1324 524
    endloop
  endfacet
  facet normal 0 -1 -0
    outer loop
      vertex 601 1324 524
      vertex 20 1324 451
      vertex 675 1324 524
    endloop
  endfacet
  facet normal 0 -1 -0
    outer loop
      vertex 675 1324 524
      vertex 20 1324 451
      vertex 982 1324 524
    endloop
  endfacet
  facet normal 0 -1 -0
    outer loop
      vertex 982 1324 524
      vertex 20 1324 451
      vertex 1056 1324 524
    endloop
  endfacet
  facet normal 0 -1 0
    outer loop
      vertex 2020 1324 451
      vertex 1056 1324 524
      vertex 20 1324 451
    endloop
  endfacet
  facet normal 0 -1 0
    outer loop
      vertex 1056 1324 524
      vertex 2020 1324 451
      vertex 1363 1324 524
    endloop
  endfacet
  facet normal 0 -1 0
    outer loop
      vertex 1363 1324 524
      vertex 2020 1324 451
      vertex 1437 1324 524
    endloop
  endfacet
  facet normal 0 -1 0
    outer loop
      vertex 1437 1324 524
      vertex 2020 1324 451
      vertex 1744 1324 524
    endloop
  endfacet
  facet normal 0 -1 0
    outer loop
      vertex 20 1324 451
      vertex 220 1324 524
      vertex 20 1324 525
    endloop
  endfacet
  facet normal 0 -1 0
    outer loop
      vertex 294 1324 524
      vertex 601 1324 525
      vertex 294 1324 525
    endloop
  endfacet
  facet normal 0 -1 -0
    outer loop
      vertex 601 1324 525
      vertex 294 1324 524
      vertex 601 1324 524
    endloop
  endfacet
  facet normal 0 -1 0
    outer loop
      vertex 675 1324 524
      vertex 982 1324 525
      vertex 675 1324 525
    endloop
  endfacet
  facet normal 0 -1 -0
    outer loop
      vertex 982 1324 525
      vertex 675 1324 524
      vertex 982 1324 524
    endloop
  endfacet
  facet normal 0 -1 0
    outer loop
      vertex 1056 1324 524
      vertex 1363 1324 525
      vertex 1056 1324 525
    endloop
  endfacet
  facet normal 0 -1 -0
    outer loop
      vertex 1363 1324 525
      vertex 1056 1324 524
      vertex 1363 1324 524
    endloop
  endfacet
  facet normal 0 -1 0
    outer loop
      vertex 1437 1324 524
      vertex 1744 1324 525
      vertex 1437 1324 525
    endloop
  endfacet
  facet normal 0 -1 -0
    outer loop
      vertex 1744 1324 525
      vertex 1437 1324 524
      vertex 1744 1324 524
    endloop
  endfacet
  facet normal 0 -1 0
    outer loop
      vertex 1818 1324 524
      vertex 2020 1324 525
      vertex 1818 1324 525
    endloop
  endfacet
  facet normal 0 -1 0
    outer loop
      vertex 1744 1324 524
      vertex 2020 1324 451
      vertex 1818 1324 524
    endloop
  endfacet
  facet normal 0 -1 0
    outer loop
      vertex 1818 1324 524
      vertex 2020 1324 451
      vertex 2020 1324 525
    endloop
  endfacet
  facet normal 0 0 1
    outer loop
      vertex 220 1400 598
      vertex 294 1570 598
      vertex 220 1570 598
    endloop
  endfacet
  facet normal 0 0 1
    outer loop
      vertex 220 200 598
      vertex 294 1570 598
      vertex 220 1400 598
    endloop
  endfacet
  facet normal 0 0 1
    outer loop
      vertex 294 1570 598
      vertex 220 200 598
      vertex 294 25 598
    endloop
  endfacet
  facet normal 0 0 1
    outer loop
      vertex 294 25 598
      vertex 220 200 598
      vertex 220 25 598
    endloop
  endfacet
  facet normal 1 0 0
    outer loop
      vertex 294 1570 598
      vertex 294 1398 525
      vertex 294 1570 524
    endloop
  endfacet
  facet normal 1 0 0
    outer loop
      vertex 294 1570 598
      vertex 294 1324 525
      vertex 294 1398 525
    endloop
  endfacet
  facet normal 1 0 0
    outer loop
      vertex 294 1324 525
      vertex 294 274 525
      vertex 294 1324 524
    endloop
  endfacet
  facet normal 1 0 0
    outer loop
      vertex 294 1570 598
      vertex 294 274 525
      vertex 294 1324 525
    endloop
  endfacet
  facet normal 1 -0 0
    outer loop
      vertex 294 25 598
      vertex 294 274 525
      vertex 294 1570 598
    endloop
  endfacet
  facet normal 1 0 0
    outer loop
      vertex 294 274 525
      vertex 294 25 598
      vertex 294 200 525
    endloop
  endfacet
  facet normal 1 0 0
    outer loop
      vertex 294 25 524
      vertex 294 200 525
      vertex 294 25 598
    endloop
  endfacet
  facet normal 1 0 0
    outer loop
      vertex 294 200 525
      vertex 294 25 524
      vertex 294 200 524
    endloop
  endfacet
  facet normal 1 0 0
    outer loop
      vertex 294 1570 524
      vertex 294 1398 525
      vertex 294 1398 524
    endloop
  endfacet
  facet normal 1 0 0
    outer loop
      vertex 294 1324 524
      vertex 294 274 525
      vertex 294 274 524
    endloop
  endfacet
  facet normal 0 0 -1
    outer loop
      vertex 220 25 524
      vertex 294 200 524
      vertex 294 25 524
    endloop
  endfacet
  facet normal -0 0 -1
    outer loop
      vertex 294 200 524
      vertex 220 25 524
      vertex 220 200 524
    endloop
  endfacet
  facet normal 0 0 -1
    outer loop
      vertex 220 274 524
      vertex 294 1324 524
      vertex 294 274 524
    endloop
  endfacet
  facet normal -0 0 -1
    outer loop
      vertex 294 1324 524
      vertex 220 274 524
      vertex 220 1324 524
    endloop
  endfacet
  facet normal 0 0 -1
    outer loop
      vertex 220 1400 524
      vertex 294 1398 524
      vertex 220 1398 524
    endloop
  endfacet
  facet normal 0 0 -1
    outer loop
      vertex 294 1398 524
      vertex 220 1400 524
      vertex 294 1570 524
    endloop
  endfacet
  facet normal -0 0 -1
    outer loop
      vertex 294 1570 524
      vertex 220 1400 524
      vertex 220 1570 524
    endloop
  endfacet
  facet normal 0 1 -0
    outer loop
      vertex 601 25 524
      vertex 294 25 598
      vertex 601 25 598
    endloop
  endfacet
  facet normal 0 1 0
    outer loop
      vertex 294 25 598
      vertex 601 25 524
      vertex 294 25 524
    endloop
  endfacet
  facet normal 0 1 -0
    outer loop
      vertex 982 25 524
      vertex 675 25 598
      vertex 982 25 598
    endloop
  endfacet
  facet normal 0 1 0
    outer loop
      vertex 675 25 598
      vertex 982 25 524
      vertex 675 25 524
    endloop
  endfacet
  facet normal 0 1 -0
    outer loop
      vertex 1363 25 524
      vertex 1056 25 598
      vertex 1363 25 598
    endloop
  endfacet
  facet normal 0 1 0
    outer loop
      vertex 1056 25 598
      vertex 1363 25 524
      vertex 1056 25 524
    endloop
  endfacet
  facet normal 0 1 -0
    outer loop
      vertex 1744 25 524
      vertex 1437 25 598
      vertex 1744 25 598
    endloop
  endfacet
  facet normal 0 1 0
    outer loop
      vertex 1437 25 598
      vertex 1744 25 524
      vertex 1437 25 524
    endloop
  endfacet
  facet normal 0 1 0
    outer loop
      vertex 1744 25 598
      vertex 1820 25 700
      vertex 1820 25 600
    endloop
  endfacet
  facet normal 0 1 0
    outer loop
      vertex 1363 25 598
      vertex 1820 25 700
      vertex 1437 25 598
    endloop
  endfacet
  facet normal 0 1 0
    outer loop
      vertex 1744 25 598
      vertex 1820 25 600
      vertex 1818 25 598
    endloop
  endfacet
  facet normal 0 1 0
    outer loop
      vertex 1820 25 600
      vertex 1818 25 524
      vertex 1818 25 598
    endloop
  endfacet
  facet normal 0 1 0
    outer loop
      vertex 1820 25 0
      vertex 1744 25 524
      vertex 1818 25 524
    endloop
  endfacet
  facet normal 0 1 0
    outer loop
      vertex 1744 25 524
      vertex 1820 25 0
      vertex 1437 25 524
    endloop
  endfacet
  facet normal 0 1 0
    outer loop
      vertex 1437 25 524
      vertex 1820 25 0
      vertex 1363 25 524
    endloop
  endfacet
  facet normal 0 1 0
    outer loop
      vertex 1363 25 524
      vertex 1820 25 0
      vertex 1056 25 524
    endloop
  endfacet
  facet normal 0 1 0
    outer loop
      vertex 1056 25 524
      vertex 1820 25 0
      vertex 982 25 524
    endloop
  endfacet
  facet normal 0 1 0
    outer loop
      vertex 220 25 0
      vertex 982 25 524
      vertex 1820 25 0
    endloop
  endfacet
  facet normal 0 1 0
    outer loop
      vertex 982 25 524
      vertex 220 25 0
      vertex 675 25 524
    endloop
  endfacet
  facet normal 0 1 0
    outer loop
      vertex 675 25 524
      vertex 220 25 0
      vertex 601 25 524
    endloop
  endfacet
  facet normal 0 1 -0
    outer loop
      vertex 1820 25 0
      vertex 1818 25 524
      vertex 1820 25 600
    endloop
  endfacet
  facet normal 0 1 0
    outer loop
      vertex 601 25 524
      vertex 220 25 0
      vertex 294 25 524
    endloop
  endfacet
  facet normal 0 1 0
    outer loop
      vertex 294 25 524
      vertex 220 25 0
      vertex 220 25 524
    endloop
  endfacet
  facet normal 0 1 0
    outer loop
      vertex 1820 25 700
      vertex 1744 25 598
      vertex 1437 25 598
    endloop
  endfacet
  facet normal 0 1 0
    outer loop
      vertex 1056 25 598
      vertex 1820 25 700
      vertex 1363 25 598
    endloop
  endfacet
  facet normal 0 1 0
    outer loop
      vertex 1820 25 700
      vertex 1056 25 598
      vertex 220 25 700
    endloop
  endfacet
  facet normal 0 1 -0
    outer loop
      vertex 982 25 598
      vertex 220 25 700
      vertex 1056 25 598
    endloop
  endfacet
  facet normal 0 1 -0
    outer loop
      vertex 675 25 598
      vertex 220 25 700
      vertex 982 25 598
    endloop
  endfacet
  facet normal 0 1 -0
    outer loop
      vertex 601 25 598
      vertex 220 25 700
      vertex 675 25 598
    endloop
  endfacet
  facet normal 0 1 -0
    outer loop
      vertex 294 25 598
      vertex 220 25 700
      vertex 601 25 598
    endloop
  endfacet
  facet normal 0 1 0
    outer loop
      vertex 220 25 700
      vertex 294 25 598
      vertex 220 25 600
    endloop
  endfacet
  facet normal 0 1 0
    outer loop
      vertex 220 25 600
      vertex 294 25 598
      vertex 220 25 598
    endloop
  endfacet
  facet normal -1 0 0
    outer loop
      vertex 601 200 524
      vertex 601 25 524
      vertex 601 200 525
    endloop
  endfacet
  facet normal -1 0 0
    outer loop
      vertex 601 1324 524
      vertex 601 274 524
      vertex 601 1324 525
    endloop
  endfacet
  facet normal -1 0 0
    outer loop
      vertex 601 1398 525
      vertex 601 1570 524
      vertex 601 1398 524
    endloop
  endfacet
  facet normal -1 0 0
    outer loop
      vertex 601 1570 524
      vertex 601 1398 525
      vertex 601 1570 598
    endloop
  endfacet
  facet normal -1 0 0
    outer loop
      vertex 601 1324 525
      vertex 601 1570 598
      vertex 601 1398 525
    endloop
  endfacet
  facet normal -1 0 0
    outer loop
      vertex 601 274 525
      vertex 601 1324 525
      vertex 601 274 524
    endloop
  endfacet
  facet normal -1 0 0
    outer loop
      vertex 601 1324 525
      vertex 601 274 525
      vertex 601 1570 598
    endloop
  endfacet
  facet normal -1 0 0
    outer loop
      vertex 601 25 598
      vertex 601 274 525
      vertex 601 200 525
    endloop
  endfacet
  facet normal -1 0 0
    outer loop
      vertex 601 25 598
      vertex 601 200 525
      vertex 601 25 524
    endloop
  endfacet
  facet normal -1 0 0
    outer loop
      vertex 601 274 525
      vertex 601 25 598
      vertex 601 1570 598
    endloop
  endfacet
  facet normal -0 0 1
    outer loop
      vertex 601 1570 598
      vertex 675 25 598
      vertex 675 1570 598
    endloop
  endfacet
  facet normal 0 0 1
    outer loop
      vertex 675 25 598
      vertex 601 1570 598
      vertex 601 25 598
    endloop
  endfacet
  facet normal 1 0 0
    outer loop
      vertex 675 1570 598
      vertex 675 1398 525
      vertex 675 1570 524
    endloop
  endfacet
  facet normal 1 0 0
    outer loop
      vertex 675 1570 598
      vertex 675 1324 525
      vertex 675 1398 525
    endloop
  endfacet
  facet normal 1 0 0
    outer loop
      vertex 675 1324 525
      vertex 675 274 525
      vertex 675 1324 524
    endloop
  endfacet
  facet normal 1 0 0
    outer loop
      vertex 675 1570 598
      vertex 675 274 525
      vertex 675 1324 525
    endloop
  endfacet
  facet normal 1 -0 0
    outer loop
      vertex 675 25 598
      vertex 675 274 525
      vertex 675 1570 598
    endloop
  endfacet
  facet normal 1 0 0
    outer loop
      vertex 675 274 525
      vertex 675 25 598
      vertex 675 200 525
    endloop
  endfacet
  facet normal 1 0 0
    outer loop
      vertex 675 25 524
      vertex 675 200 525
      vertex 675 25 598
    endloop
  endfacet
  facet normal 1 0 0
    outer loop
      vertex 675 200 525
      vertex 675 25 524
      vertex 675 200 524
    endloop
  endfacet
  facet normal 1 0 0
    outer loop
      vertex 675 1570 524
      vertex 675 1398 525
      vertex 675 1398 524
    endloop
  endfacet
  facet normal 1 0 0
    outer loop
      vertex 675 1324 524
      vertex 675 274 525
      vertex 675 274 524
    endloop
  endfacet
  facet normal 0 0 -1
    outer loop
      vertex 601 25 524
      vertex 675 200 524
      vertex 675 25 524
    endloop
  endfacet
  facet normal -0 0 -1
    outer loop
      vertex 675 200 524
      vertex 601 25 524
      vertex 601 200 524
    endloop
  endfacet
  facet normal 0 0 -1
    outer loop
      vertex 601 274 524
      vertex 675 1324 524
      vertex 675 274 524
    endloop
  endfacet
  facet normal -0 0 -1
    outer loop
      vertex 675 1324 524
      vertex 601 274 524
      vertex 601 1324 524
    endloop
  endfacet
  facet normal 0 0 -1
    outer loop
      vertex 601 1398 524
      vertex 675 1570 524
      vertex 675 1398 524
    endloop
  endfacet
  facet normal -0 0 -1
    outer loop
      vertex 675 1570 524
      vertex 601 1398 524
      vertex 601 1570 524
    endloop
  endfacet
  facet normal -1 0 0
    outer loop
      vertex 982 200 524
      vertex 982 25 524
      vertex 982 200 525
    endloop
  endfacet
  facet normal -1 0 0
    outer loop
      vertex 982 1324 524
      vertex 982 274 524
      vertex 982 1324 525
    endloop
  endfacet
  facet normal -1 0 0
    outer loop
      vertex 982 1398 525
      vertex 982 1570 524
      vertex 982 1398 524
    endloop
  endfacet
  facet normal -1 0 0
    outer loop
      vertex 982 1570 524
      vertex 982 1398 525
      vertex 982 1570 598
    endloop
  endfacet
  facet normal -1 0 0
    outer loop
      vertex 982 1324 525
      vertex 982 1570 598
      vertex 982 1398 525
    endloop
  endfacet
  facet normal -1 0 0
    outer loop
      vertex 982 274 525
      vertex 982 1324 525
      vertex 982 274 524
    endloop
  endfacet
  facet normal -1 0 0
    outer loop
      vertex 982 1324 525
      vertex 982 274 525
      vertex 982 1570 598
    endloop
  endfacet
  facet normal -1 0 0
    outer loop
      vertex 982 25 598
      vertex 982 274 525
      vertex 982 200 525
    endloop
  endfacet
  facet normal -1 0 0
    outer loop
      vertex 982 25 598
      vertex 982 200 525
      vertex 982 25 524
    endloop
  endfacet
  facet normal -1 0 0
    outer loop
      vertex 982 274 525
      vertex 982 25 598
      vertex 982 1570 598
    endloop
  endfacet
  facet normal -0 0 1
    outer loop
      vertex 982 1570 598
      vertex 1056 25 598
      vertex 1056 1570 598
    endloop
  endfacet
  facet normal 0 0 1
    outer loop
      vertex 1056 25 598
      vertex 982 1570 598
      vertex 982 25 598
    endloop
  endfacet
  facet normal 1 0 0
    outer loop
      vertex 1056 1570 598
      vertex 1056 1398 525
      vertex 1056 1570 524
    endloop
  endfacet
  facet normal 1 0 0
    outer loop
      vertex 1056 1570 598
      vertex 1056 1324 525
      vertex 1056 1398 525
    endloop
  endfacet
  facet normal 1 0 0
    outer loop
      vertex 1056 1324 525
      vertex 1056 274 525
      vertex 1056 1324 524
    endloop
  endfacet
  facet normal 1 0 0
    outer loop
      vertex 1056 1570 598
      vertex 1056 274 525
      vertex 1056 1324 525
    endloop
  endfacet
  facet normal 1 -0 0
    outer loop
      vertex 1056 25 598
      vertex 1056 274 525
      vertex 1056 1570 598
    endloop
  endfacet
  facet normal 1 0 0
    outer loop
      vertex 1056 274 525
      vertex 1056 25 598
      vertex 1056 200 525
    endloop
  endfacet
  facet normal 1 0 0
    outer loop
      vertex 1056 25 524
      vertex 1056 200 525
      vertex 1056 25 598
    endloop
  endfacet
  facet normal 1 0 0
    outer loop
      vertex 1056 200 525
      vertex 1056 25 524
      vertex 1056 200 524
    endloop
  endfacet
  facet normal 1 0 0
    outer loop
      vertex 1056 1570 524
      vertex 1056 1398 525
      vertex 1056 1398 524
    endloop
  endfacet
  facet normal 1 0 0
    outer loop
      vertex 1056 1324 524
      vertex 1056 274 525
      vertex 1056 274 524
    endloop
  endfacet
  facet normal 0 0 -1
    outer loop
      vertex 982 25 524
      vertex 1056 200 524
      vertex 1056 25 524
    endloop
  endfacet
  facet normal -0 0 -1
    outer loop
      vertex 1056 200 524
      vertex 982 25 524
      vertex 982 200 524
    endloop
  endfacet
  facet normal 0 0 -1
    outer loop
      vertex 982 274 524
      vertex 1056 1324 524
      vertex 1056 274 524
    endloop
  endfacet
  facet normal -0 0 -1
    outer loop
      vertex 1056 1324 524
      vertex 982 274 524
      vertex 982 1324 524
    endloop
  endfacet
  facet normal 0 0 -1
    outer loop
      vertex 982 1398 524
      vertex 1056 1570 524
      vertex 1056 1398 524
    endloop
  endfacet
  facet normal -0 0 -1
    outer loop
      vertex 1056 1570 524
      vertex 982 1398 524
      vertex 982 1570 524
    endloop
  endfacet
  facet normal -1 0 0
    outer loop
      vertex 1363 200 524
      vertex 1363 25 524
      vertex 1363 200 525
    endloop
  endfacet
  facet normal -1 0 0
    outer loop
      vertex 1363 1324 524
      vertex 1363 274 524
      vertex 1363 1324 525
    endloop
  endfacet
  facet normal -1 0 0
    outer loop
      vertex 1363 1398 525
      vertex 1363 1570 524
      vertex 1363 1398 524
    endloop
  endfacet
  facet normal -1 0 0
    outer loop
      vertex 1363 1570 524
      vertex 1363 1398 525
      vertex 1363 1570 598
    endloop
  endfacet
  facet normal -1 0 0
    outer loop
      vertex 1363 1324 525
      vertex 1363 1570 598
      vertex 1363 1398 525
    endloop
  endfacet
  facet normal -1 0 0
    outer loop
      vertex 1363 274 525
      vertex 1363 1324 525
      vertex 1363 274 524
    endloop
  endfacet
  facet normal -1 0 0
    outer loop
      vertex 1363 1324 525
      vertex 1363 274 525
      vertex 1363 1570 598
    endloop
  endfacet
  facet normal -1 0 0
    outer loop
      vertex 1363 25 598
      vertex 1363 274 525
      vertex 1363 200 525
    endloop
  endfacet
  facet normal -1 0 0
    outer loop
      vertex 1363 25 598
      vertex 1363 200 525
      vertex 1363 25 524
    endloop
  endfacet
  facet normal -1 0 0
    outer loop
      vertex 1363 274 525
      vertex 1363 25 598
      vertex 1363 1570 598
    endloop
  endfacet
  facet normal -0 0 1
    outer loop
      vertex 1363 1570 598
      vertex 1437 25 598
      vertex 1437 1570 598
    endloop
  endfacet
  facet normal 0 0 1
    outer loop
      vertex 1437 25 598
      vertex 1363 1570 598
      vertex 1363 25 598
    endloop
  endfacet
  facet normal 1 0 0
    outer loop
      vertex 1437 1570 598
      vertex 1437 1398 525
      vertex 1437 1570 524
    endloop
  endfacet
  facet normal 1 0 0
    outer loop
      vertex 1437 1570 598
      vertex 1437 1324 525
      vertex 1437 1398 525
    endloop
  endfacet
  facet normal 1 0 0
    outer loop
      vertex 1437 1324 525
      vertex 1437 274 525
      vertex 1437 1324 524
    endloop
  endfacet
  facet normal 1 0 0
    outer loop
      vertex 1437 1570 598
      vertex 1437 274 525
      vertex 1437 1324 525
    endloop
  endfacet
  facet normal 1 -0 0
    outer loop
      vertex 1437 25 598
      vertex 1437 274 525
      vertex 1437 1570 598
    endloop
  endfacet
  facet normal 1 0 0
    outer loop
      vertex 1437 274 525
      vertex 1437 25 598
      vertex 1437 200 525
    endloop
  endfacet
  facet normal 1 0 0
    outer loop
      vertex 1437 25 524
      vertex 1437 200 525
      vertex 1437 25 598
    endloop
  endfacet
  facet normal 1 0 0
    outer loop
      vertex 1437 200 525
      vertex 1437 25 524
      vertex 1437 200 524
    endloop
  endfacet
  facet normal 1 0 0
    outer loop
      vertex 1437 1570 524
      vertex 1437 1398 525
      vertex 1437 1398 524
    endloop
  endfacet
  facet normal 1 0 0
    outer loop
      vertex 1437 1324 524
      vertex 1437 274 525
      vertex 1437 274 524
    endloop
  endfacet
  facet normal 0 0 -1
    outer loop
      vertex 1363 25 524
      vertex 1437 200 524
      vertex 1437 25 524
    endloop
  endfacet
  facet normal -0 0 -1
    outer loop
      vertex 1437 200 524
      vertex 1363 25 524
      vertex 1363 200 524
    endloop
  endfacet
  facet normal 0 0 -1
    outer loop
      vertex 1363 274 524
      vertex 1437 1324 524
      vertex 1437 274 524
    endloop
  endfacet
  facet normal -0 0 -1
    outer loop
      vertex 1437 1324 524
      vertex 1363 274 524
      vertex 1363 1324 524
    endloop
  endfacet
  facet normal 0 0 -1
    outer loop
      vertex 1363 1398 524
      vertex 1437 1570 524
      vertex 1437 1398 524
    endloop
  endfacet
  facet normal -0 0 -1
    outer loop
      vertex 1437 1570 524
      vertex 1363 1398 524
      vertex 1363 1570 524
    endloop
  endfacet
  facet normal -1 0 0
    outer loop
      vertex 1744 200 524
      vertex 1744 25 524
      vertex 1744 200 525
    endloop
  endfacet
  facet normal -1 0 0
    outer loop
      vertex 1744 1324 524
      vertex 1744 274 524
      vertex 1744 1324 525
    endloop
  endfacet
  facet normal -1 0 0
    outer loop
      vertex 1744 1398 525
      vertex 1744 1570 524
      vertex 1744 1398 524
    endloop
  endfacet
  facet normal -1 0 0
    outer loop
      vertex 1744 1570 524
      vertex 1744 1398 525
      vertex 1744 1570 598
    endloop
  endfacet
  facet normal -1 0 0
    outer loop
      vertex 1744 1324 525
      vertex 1744 1570 598
      vertex 1744 1398 525
    endloop
  endfacet
  facet normal -1 0 0
    outer loop
      vertex 1744 274 525
      vertex 1744 1324 525
      vertex 1744 274 524
    endloop
  endfacet
  facet normal -1 0 0
    outer loop
      vertex 1744 1324 525
      vertex 1744 274 525
      vertex 1744 1570 598
    endloop
  endfacet
  facet normal -1 0 0
    outer loop
      vertex 1744 25 598
      vertex 1744 274 525
      vertex 1744 200 525
    endloop
  endfacet
  facet normal -1 0 0
    outer loop
      vertex 1744 25 598
      vertex 1744 200 525
      vertex 1744 25 524
    endloop
  endfacet
  facet normal -1 0 0
    outer loop
      vertex 1744 274 525
      vertex 1744 25 598
      vertex 1744 1570 598
    endloop
  endfacet
  facet normal -0 0 1
    outer loop
      vertex 1744 1570 598
      vertex 1818 25 598
      vertex 1818 1570 598
    endloop
  endfacet
  facet normal 0 0 1
    outer loop
      vertex 1818 25 598
      vertex 1744 1570 598
      vertex 1744 25 598
    endloop
  endfacet
  facet normal 1 0 0
    outer loop
      vertex 1818 1570 598
      vertex 1818 1398 525
      vertex 1818 1570 524
    endloop
  endfacet
  facet normal 1 0 0
    outer loop
      vertex 1818 1570 598
      vertex 1818 1324 525
      vertex 1818 1398 525
    endloop
  endfacet
  facet normal 1 0 0
    outer loop
      vertex 1818 1324 525
      vertex 1818 274 525
      vertex 1818 1324 524
    endloop
  endfacet
  facet normal 1 0 0
    outer loop
      vertex 1818 1570 598
      vertex 1818 274 525
      vertex 1818 1324 525
    endloop
  endfacet
  facet normal 1 -0 0
    outer loop
      vertex 1818 25 598
      vertex 1818 274 525
      vertex 1818 1570 598
    endloop
  endfacet
  facet normal 1 0 0
    outer loop
      vertex 1818 274 525
      vertex 1818 25 598
      vertex 1818 200 525
    endloop
  endfacet
  facet normal 1 0 0
    outer loop
      vertex 1818 25 524
      vertex 1818 200 525
      vertex 1818 25 598
    endloop
  endfacet
  facet normal 1 0 0
    outer loop
      vertex 1818 200 525
      vertex 1818 25 524
      vertex 1818 200 524
    endloop
  endfacet
  facet normal 1 0 0
    outer loop
      vertex 1818 1570 524
      vertex 1818 1398 525
      vertex 1818 1398 524
    endloop
  endfacet
  facet normal 1 0 0
    outer loop
      vertex 1818 1324 524
      vertex 1818 274 525
      vertex 1818 274 524
    endloop
  endfacet
  facet normal 0 0 -1
    outer loop
      vertex 1744 25 524
      vertex 1818 200 524
      vertex 1818 25 524
    endloop
  endfacet
  facet normal -0 0 -1
    outer loop
      vertex 1818 200 524
      vertex 1744 25 524
      vertex 1744 200 524
    endloop
  endfacet
  facet normal 0 0 -1
    outer loop
      vertex 1744 274 524
      vertex 1818 1324 524
      vertex 1818 274 524
    endloop
  endfacet
  facet normal -0 0 -1
    outer loop
      vertex 1818 1324 524
      vertex 1744 274 524
      vertex 1744 1324 524
    endloop
  endfacet
  facet normal 0 0 -1
    outer loop
      vertex 1744 1398 524
      vertex 1818 1570 524
      vertex 1818 1398 524
    endloop
  endfacet
  facet normal -0 0 -1
    outer loop
      vertex 1818 1570 524
      vertex 1744 1398 524
      vertex 1744 1570 524
    endloop
  endfacet
  facet normal 1 -0 0
    outer loop
      vertex 230 0 600
      vertex 230 10 0
      vertex 230 10 600
    endloop
  endfacet
  facet normal 1 0 0
    outer loop
      vertex 230 10 0
      vertex 230 0 600
      vertex 230 0 0
    endloop
  endfacet
  facet normal 0 -1 0
    outer loop
      vertex 230 10 0
      vertex 1810 10 600
      vertex 230 10 600
    endloop
  endfacet
  facet normal 0 -1 -0
    outer loop
      vertex 1810 10 600
      vertex 230 10 0
      vertex 1810 10 0
    endloop
  endfacet
  facet normal 0 -1 0
    outer loop
      vertex 230 10 600
      vertex 220 10 700
      vertex 220 10 600
    endloop
  endfacet
  facet normal 0 -1 0
    outer loop
      vertex 220 10 700
      vertex 230 10 600
      vertex 1820 10 700
    endloop
  endfacet
  facet normal 0 -1 0
    outer loop
      vertex 1810 10 600
      vertex 1820 10 700
      vertex 230 10 600
    endloop
  endfacet
  facet normal 0 -1 -0
    outer loop
      vertex 1820 10 700
      vertex 1810 10 600
      vertex 1820 10 600
    endloop
  endfacet
  facet normal -1 0 0
    outer loop
      vertex 1810 0 0
      vertex 1810 10 600
      vertex 1810 10 0
    endloop
  endfacet
  facet normal -1 -0 0
    outer loop
      vertex 1810 10 600
      vertex 1810 0 0
      vertex 1810 0 600
    endloop
  endfacet
  facet normal 1 -0 0
    outer loop
      vertex 230 1590 600
      vertex 230 1600 0
      vertex 230 1600 600
    endloop
  endfacet
  facet normal 1 0 0
    outer loop
      vertex 230 1600 0
      vertex 230 1590 600
      vertex 230 1590 0
    endloop
  endfacet
  facet normal 0 -1 0
    outer loop
      vertex 220 1590 0
      vertex 230 1590 600
      vertex 220 1590 600
    endloop
  endfacet
  facet normal 0 -1 -0
    outer loop
      vertex 230 1590 600
      vertex 220 1590 0
      vertex 230 1590 0
    endloop
  endfacet
  facet normal -1 0 0
    outer loop
      vertex 1810 1590 0
      vertex 1810 1600 600
      vertex 1810 1600 0
    endloop
  endfacet
  facet normal -1 -0 0
    outer loop
      vertex 1810 1600 600
      vertex 1810 1590 0
      vertex 1810 1590 600
    endloop
  endfacet
  facet normal 0 -1 0
    outer loop
      vertex 1810 1590 0
      vertex 1820 1590 600
      vertex 1810 1590 600
    endloop
  endfacet
  facet normal 0 -1 -0
    outer loop
      vertex 1820 1590 600
      vertex 1810 1590 0
      vertex 1820 1590 0
    endloop
  endfacet
  facet normal -0 0 1
    outer loop
      vertex 220 40 400
      vertex 230 30 400
      vertex 230 40 400
    endloop
  endfacet
  facet normal 0 0 1
    outer loop
      vertex 230 30 400
      vertex 220 40 400
      vertex 220 30 400
    endloop
  endfacet
  facet normal 1 -0 0
    outer loop
      vertex 230 30 400
      vertex 230 40 0
      vertex 230 40 400
    endloop
  endfacet
  facet normal 1 0 0
    outer loop
      vertex 230 40 0
      vertex 230 30 400
      vertex 230 30 0
    endloop
  endfacet
  facet normal 0 -1 0
    outer loop
      vertex 220 30 0
      vertex 230 30 400
      vertex 220 30 400
    endloop
  endfacet
  facet normal 0 -1 -0
    outer loop
      vertex 230 30 400
      vertex 220 30 0
      vertex 230 30 0
    endloop
  endfacet
  facet normal 0 1 -0
    outer loop
      vertex 230 40 0
      vertex 220 40 400
      vertex 230 40 400
    endloop
  endfacet
  facet normal 0 1 0
    outer loop
      vertex 220 40 400
      vertex 230 40 0
      vertex 220 40 0
    endloop
  endfacet
  facet normal -1 0 0
    outer loop
      vertex 1810 30 0
      vertex 1810 40 400
      vertex 1810 40 0
    endloop
  endfacet
  facet normal -1 -0 0
    outer loop
      vertex 1810 40 400
      vertex 1810 30 0
      vertex 1810 30 400
    endloop
  endfacet
  facet normal -0 0 1
    outer loop
      vertex 1810 40 400
      vertex 1820 30 400
      vertex 1820 40 400
    endloop
  endfacet
  facet normal 0 0 1
    outer loop
      vertex 1820 30 400
      vertex 1810 40 400
      vertex 1810 30 400
    endloop
  endfacet
  facet normal 0 1 -0
    outer loop
      vertex 1820 40 0
      vertex 1810 40 400
      vertex 1820 40 400
    endloop
  endfacet
  facet normal 0 1 0
    outer loop
      vertex 1810 40 400
      vertex 1820 40 0
      vertex 1810 40 0
    endloop
  endfacet
  facet normal 0 -1 0
    outer loop
      vertex 1810 30 0
      vertex 1820 30 400
      vertex 1810 30 400
    endloop
  endfacet
  facet normal 0 -1 -0
    outer loop
      vertex 1820 30 400
      vertex 1810 30 0
      vertex 1820 30 0
    endloop
  endfacet
  facet normal -0 0 1
    outer loop
      vertex 220 1570 400
      vertex 230 1560 400
      vertex 230 1570 400
    endloop
  endfacet
  facet normal 0 0 1
    outer loop
      vertex 230 1560 400
      vertex 220 1570 400
      vertex 220 1560 400
    endloop
  endfacet
  facet normal 1 -0 0
    outer loop
      vertex 230 1560 400
      vertex 230 1570 0
      vertex 230 1570 400
    endloop
  endfacet
  facet normal 1 0 0
    outer loop
      vertex 230 1570 0
      vertex 230 1560 400
      vertex 230 1560 0
    endloop
  endfacet
  facet normal 0 -1 0
    outer loop
      vertex 1056 1570 524
      vertex 1810 1570 0
      vertex 1363 1570 524
    endloop
  endfacet
  facet normal 0 -1 0
    outer loop
      vertex 1363 1570 524
      vertex 1810 1570 0
      vertex 1810 1570 400
    endloop
  endfacet
  facet normal 0 -1 0
    outer loop
      vertex 230 1570 400
      vertex 294 1570 524
      vertex 220 1570 524
    endloop
  endfacet
  facet normal 0 -1 -0
    outer loop
      vertex 294 1570 524
      vertex 230 1570 400
      vertex 601 1570 524
    endloop
  endfacet
  facet normal 0 -1 0
    outer loop
      vertex 230 1570 0
      vertex 601 1570 524
      vertex 230 1570 400
    endloop
  endfacet
  facet normal 0 -1 -0
    outer loop
      vertex 601 1570 524
      vertex 230 1570 0
      vertex 675 1570 524
    endloop
  endfacet
  facet normal 0 -1 -0
    outer loop
      vertex 675 1570 524
      vertex 230 1570 0
      vertex 982 1570 524
    endloop
  endfacet
  facet normal 0 -1 -0
    outer loop
      vertex 982 1570 524
      vertex 230 1570 0
      vertex 1056 1570 524
    endloop
  endfacet
  facet normal 0 -1 0
    outer loop
      vertex 1810 1570 0
      vertex 1056 1570 524
      vertex 230 1570 0
    endloop
  endfacet
  facet normal 0 -1 0
    outer loop
      vertex 1363 1570 524
      vertex 1810 1570 400
      vertex 1437 1570 524
    endloop
  endfacet
  facet normal 0 -1 0
    outer loop
      vertex 230 1570 400
      vertex 220 1570 524
      vertex 220 1570 400
    endloop
  endfacet
  facet normal 0 -1 0
    outer loop
      vertex 1437 1570 524
      vertex 1744 1570 598
      vertex 1437 1570 598
    endloop
  endfacet
  facet normal 0 -1 -0
    outer loop
      vertex 1744 1570 598
      vertex 1437 1570 524
      vertex 1744 1570 524
    endloop
  endfacet
  facet normal 0 -1 0
    outer loop
      vertex 1056 1570 524
      vertex 1363 1570 598
      vertex 1056 1570 598
    endloop
  endfacet
  facet normal 0 -1 -0
    outer loop
      vertex 1363 1570 598
      vertex 1056 1570 524
      vertex 1363 1570 524
    endloop
  endfacet
  facet normal 0 -1 0
    outer loop
      vertex 675 1570 524
      vertex 982 1570 598
      vertex 675 1570 598
    endloop
  endfacet
  facet normal 0 -1 -0
    outer loop
      vertex 982 1570 598
      vertex 675 1570 524
      vertex 982 1570 524
    endloop
  endfacet
  facet normal 0 -1 0
    outer loop
      vertex 294 1570 524
      vertex 601 1570 598
      vertex 294 1570 598
    endloop
  endfacet
  facet normal 0 -1 -0
    outer loop
      vertex 601 1570 598
      vertex 294 1570 524
      vertex 601 1570 524
    endloop
  endfacet
  facet normal 0 -1 0
    outer loop
      vertex 294 1570 598
      vertex 220 1570 700
      vertex 220 1570 600
    endloop
  endfacet
  facet normal 0 -1 0
    outer loop
      vertex 675 1570 598
      vertex 220 1570 700
      vertex 601 1570 598
    endloop
  endfacet
  facet normal 0 -1 0
    outer loop
      vertex 294 1570 598
      vertex 220 1570 600
      vertex 220 1570 598
    endloop
  endfacet
  facet normal 0 -1 0
    outer loop
      vertex 220 1570 700
      vertex 294 1570 598
      vertex 601 1570 598
    endloop
  endfacet
  facet normal 0 -1 0
    outer loop
      vertex 982 1570 598
      vertex 220 1570 700
      vertex 675 1570 598
    endloop
  endfacet
  facet normal 0 -1 0
    outer loop
      vertex 220 1570 700
      vertex 982 1570 598
      vertex 1820 1570 700
    endloop
  endfacet
  facet normal 0 -1 0
    outer loop
      vertex 1056 1570 598
      vertex 1820 1570 700
      vertex 982 1570 598
    endloop
  endfacet
  facet normal 0 -1 0
    outer loop
      vertex 1363 1570 598
      vertex 1820 1570 700
      vertex 1056 1570 598
    endloop
  endfacet
  facet normal 0 -1 0
    outer loop
      vertex 1437 1570 598
      vertex 1820 1570 700
      vertex 1363 1570 598
    endloop
  endfacet
  facet normal 0 -1 0
    outer loop
      vertex 1744 1570 598
      vertex 1820 1570 700
      vertex 1437 1570 598
    endloop
  endfacet
  facet normal 0 -1 -0
    outer loop
      vertex 1820 1570 700
      vertex 1744 1570 598
      vertex 1820 1570 600
    endloop
  endfacet
  facet normal 0 -1 0
    outer loop
      vertex 1818 1570 598
      vertex 1820 1570 600
      vertex 1744 1570 598
    endloop
  endfacet
  facet normal 0 -1 0
    outer loop
      vertex 1818 1570 524
      vertex 1820 1570 600
      vertex 1818 1570 598
    endloop
  endfacet
  facet normal 0 -1 0
    outer loop
      vertex 1437 1570 524
      vertex 1810 1570 400
      vertex 1744 1570 524
    endloop
  endfacet
  facet normal 0 -1 0
    outer loop
      vertex 1744 1570 524
      vertex 1810 1570 400
      vertex 1818 1570 524
    endloop
  endfacet
  facet normal 0 -1 0
    outer loop
      vertex 1818 1570 524
      vertex 1820 1570 400
      vertex 1820 1570 600
    endloop
  endfacet
  facet normal 0 -1 0
    outer loop
      vertex 1820 1570 400
      vertex 1818 1570 524
      vertex 1810 1570 400
    endloop
  endfacet
  facet normal 0 -1 0
    outer loop
      vertex 220 1560 0
      vertex 230 1560 400
      vertex 220 1560 400
    endloop
  endfacet
  facet normal 0 -1 -0
    outer loop
      vertex 230 1560 400
      vertex 220 1560 0
      vertex 230 1560 0
    endloop
  endfacet
  facet normal -1 0 0
    outer loop
      vertex 1810 1560 0
      vertex 1810 1570 400
      vertex 1810 1570 0
    endloop
  endfacet
  facet normal -1 -0 0
    outer loop
      vertex 1810 1570 400
      vertex 1810 1560 0
      vertex 1810 1560 400
    endloop
  endfacet
  facet normal -0 0 1
    outer loop
      vertex 1810 1570 400
      vertex 1820 1560 400
      vertex 1820 1570 400
    endloop
  endfacet
  facet normal 0 0 1
    outer loop
      vertex 1820 1560 400
      vertex 1810 1570 400
      vertex 1810 1560 400
    endloop
  endfacet
  facet normal 0 -1 0
    outer loop
      vertex 1810 1560 0
      vertex 1820 1560 400
      vertex 1810 1560 400
    endloop
  endfacet
  facet normal 0 -1 -0
    outer loop
      vertex 1820 1560 400
      vertex 1810 1560 0
      vertex 1820 1560 0
    endloop
  endfacet
  facet normal -0 0 1
    outer loop
      vertex 220 25 700
      vertex 1820 10 700
      vertex 1820 25 700
    endloop
  endfacet
  facet normal 0 0 1
    outer loop
      vertex 1820 10 700
      vertex 220 25 700
      vertex 220 10 700
    endloop
  endfacet
  facet normal -0 0 1
    outer loop
      vertex 220 1585 700
      vertex 1820 1570 700
      vertex 1820 1585 700
    endloop
  endfacet
  facet normal 0 0 1
    outer loop
      vertex 1820 1570 700
      vertex 220 1585 700
      vertex 220 1570 700
    endloop
  endfacet
  facet normal 0 1 -0
    outer loop
      vertex 1820 1585 600
      vertex 220 1585 700
      vertex 1820 1585 700
    endloop
  endfacet
  facet normal 0 1 0
    outer loop
      vertex 1820 1585 600
      vertex 220 1585 600
      vertex 220 1585 700
    endloop
  endfacet
  facet normal 0 1 -0
    outer loop
      vertex 1820 1585 0
      vertex 220 1585 600
      vertex 1820 1585 600
    endloop
  endfacet
  facet normal 0 1 0
    outer loop
      vertex 220 1585 600
      vertex 1820 1585 0
      vertex 220 1585 0
    endloop
  endfacet
  facet normal -0 0 1
    outer loop
      vertex 2020 1600 700
      vertex 2040 0 700
      vertex 2040 1600 700
    endloop
  endfacet
  facet normal 0 0 1
    outer loop
      vertex 2040 0 700
      vertex 2020 1600 700
      vertex 2020 0 700
    endloop
  endfacet
  facet normal 1 -0 0
    outer loop
      vertex 2040 0 700
      vertex 2040 1600 0
      vertex 2040 1600 700
    endloop
  endfacet
  facet normal 1 0 0
    outer loop
      vertex 2040 1600 0
      vertex 2040 0 700
      vertex 2040 0 0
    endloop
  endfacet
endsolid OpenSCAD_Model
